<svg width="338" height="96" viewBox="0 0 338 96" fill="none" xmlns="http://www.w3.org/2000/svg">
<path d="M323.571 0.00464967C322.603 15.5014 306.38 26.2032 291.081 26.7246C275.782 27.246 261.281 20.423 247.206 14.2627C233.143 8.10168 217.899 2.35217 202.848 5.13838C171.473 10.9357 155.7 49.9328 125.237 59.4927C99.659 67.5199 72.2395 52.3329 45.6311 55.3684C26.6639 57.542 9.09159 69.6093 0.0711605 86.6551M324.116 2.19198C323.388 12.6311 315.696 20.7967 306.15 25.1633C301.355 27.3481 296.07 28.6021 290.895 28.7244C283.442 28.9033 276.182 27.3657 269.109 24.975C261.475 22.4076 254.063 18.8484 246.723 15.5226C244.978 14.7359 243.222 13.9501 241.434 13.1891C228.768 7.80491 215.185 3.7221 201.845 6.32095C180.536 10.3948 166.408 29.7948 149.764 44.2612C142.112 50.914 133.973 56.5222 124.441 59.3211C119.702 60.7073 114.898 61.3259 110.058 61.4249C90.2865 61.8494 69.6963 53.9067 49.5992 55.1259C48.2171 55.2108 46.8382 55.341 45.4512 55.5172C26.7011 57.914 9.38887 70.02 0.507747 86.9766M324.661 4.39061C323.852 14.9489 315.889 23.0767 306.189 27.3291C301.312 29.4629 295.955 30.6537 290.721 30.7233C283.183 30.8173 275.839 29.1948 268.725 26.6934C261.047 23.9815 253.623 20.2528 246.241 16.7937C244.493 15.9732 242.713 15.1663 240.924 14.3827C228.156 8.82394 214.344 4.81394 200.865 7.52457C179.759 11.7773 165.638 30.9611 148.957 44.8964C141.278 51.3128 133.161 56.5902 123.68 59.1584C118.978 60.4398 114.214 60.9763 109.405 61.039C89.7658 61.2839 69.293 53.7418 49.405 55.2302C48.0356 55.337 46.6686 55.4777 45.3055 55.6749C26.7621 58.3072 9.71957 70.4284 0.978536 87.3071M325.194 6.57873C324.292 17.2457 316.07 25.3461 306.217 29.4956C301.258 31.5784 295.841 32.7053 290.524 32.7126C282.903 32.7329 275.474 31.0254 268.317 28.3908C260.586 25.5464 253.171 21.6354 245.746 18.043C243.985 17.1894 242.203 16.3486 240.389 15.544C227.53 9.79856 213.476 5.85084 199.851 8.70792C178.933 13.0951 164.845 32.1063 148.105 45.5235C140.409 51.6912 132.291 56.6395 122.885 58.9981C118.221 60.1747 113.495 60.629 108.728 60.6434C89.222 60.7088 68.8667 53.5671 49.1877 55.3248C47.8303 55.4422 46.476 55.6047 45.1368 55.8229C26.8104 58.6785 10.028 70.8383 1.42706 87.6392M325.739 8.77735C324.756 19.5635 316.262 27.6261 306.256 31.6614C301.203 33.6826 295.726 34.7569 290.35 34.7116C282.634 34.659 275.132 32.8545 267.932 30.0979C260.146 27.1097 252.732 23.0397 245.263 19.3029C243.488 18.4161 241.693 17.5535 239.866 16.7158C226.906 10.7958 212.619 6.89825 198.858 9.88971C178.13 14.4114 164.074 33.25 147.286 46.1369C139.562 52.0682 131.455 56.6864 122.111 58.8136C117.484 59.8742 112.798 60.2575 108.061 60.2357C88.6996 60.1207 68.4515 53.3917 48.9696 55.4082C47.6249 55.5473 46.2944 55.7309 44.9552 55.9491C26.8347 59.0287 10.3237 71.2265 1.85089 87.9389M326.272 10.9655C325.207 21.8595 316.431 29.8963 306.272 33.8174C301.137 35.7875 295.589 36.7987 290.142 36.7016C282.342 36.5754 274.756 34.6859 267.514 31.8074C259.685 28.6859 252.258 24.4352 244.746 20.565C242.958 19.6451 241.15 18.7494 239.321 17.8891C226.27 11.7938 211.74 7.93592 197.834 11.0851C177.292 15.7299 163.26 34.4194 146.424 46.776C138.671 52.4595 130.575 56.7477 121.295 58.6662C116.705 59.6219 112.058 59.9231 107.364 59.8643C88.1351 59.5697 68.0045 53.2412 48.7324 55.5382C47.4116 55.6984 46.0819 55.8933 44.7666 56.1326C26.8639 59.4468 10.6225 71.6598 2.27867 88.2951M326.817 13.1641C325.659 24.1781 316.624 32.1763 306.312 35.9945C301.095 37.9136 295.475 38.8616 289.969 38.7118C282.085 38.5007 274.414 36.5263 267.13 33.5258C259.247 30.2719 251.819 25.8396 244.264 21.8362C242.474 20.8824 240.652 19.9648 238.799 19.0722C225.645 12.791 210.874 8.99542 196.843 12.2895C176.489 17.0575 162.49 35.5856 145.595 47.4128C137.826 52.859 129.74 56.8173 120.522 58.5043C115.97 59.3552 111.351 59.575 106.698 59.4679C87.6136 58.993 67.5781 53.0666 48.5263 55.6321C47.2173 55.8028 45.9116 56.0187 44.6089 56.2798C26.9122 59.8181 10.9421 72.0689 2.73755 88.615M327.361 15.3514C326.122 26.4733 316.816 34.4562 306.35 38.149C301.051 40.0057 295.36 40.9019 289.783 40.7003C281.804 40.4163 274.06 38.3561 266.734 35.2224C258.796 31.8247 251.378 27.2213 243.78 23.0847C241.977 22.1091 240.142 21.1471 238.276 20.244C225.021 13.7882 210.017 10.0315 195.851 13.4713C175.696 18.3617 161.719 36.7293 144.777 48.0375C136.979 53.2359 128.904 56.8642 119.75 58.3424C115.224 59.0894 110.656 59.2374 106.044 59.082C87.0921 58.4162 67.1748 52.9017 48.3321 55.7364C47.0358 55.929 45.7427 56.1667 44.4632 56.4375C26.9843 60.2104 11.2736 72.4886 3.20834 88.9455M327.895 17.5508C326.574 28.7919 316.997 36.7257 306.389 40.3148C301.008 42.1204 295.245 42.9535 289.608 42.6993C281.547 42.3416 273.718 40.1965 266.35 36.9408C258.369 33.4099 250.939 28.6257 243.298 24.3558C241.481 23.3471 239.644 22.3625 237.766 21.4263C224.42 14.7952 209.172 11.0782 194.86 14.6757C174.892 19.6779 160.95 37.8956 143.948 48.6743C136.134 53.6354 128.058 56.9345 118.977 58.1806C114.488 58.8114 109.96 58.8886 105.379 58.6856C86.5706 57.8395 66.7597 52.7263 48.126 55.8303C46.8424 56.0446 45.5724 56.2921 44.2944 56.5855C27.0214 60.5825 11.5709 72.8993 3.64493 89.2671M328.439 19.7382C327.026 31.0992 317.178 39.0064 306.417 42.4813C300.954 44.2359 295.12 45.0059 289.411 44.6885C281.265 44.2459 273.352 42.0158 265.942 38.6382C257.906 34.9635 250.475 30.0091 242.792 25.6059C240.973 24.5633 239.111 23.5464 237.22 22.5883C223.772 15.7826 208.292 12.1045 193.845 15.8478C174.065 20.9731 160.145 39.0303 143.107 49.2892C135.264 54.0026 127.199 56.9717 118.182 58.0089C113.73 58.535 109.241 58.53 104.702 58.29C86.0267 57.2643 66.3341 52.5629 47.9087 55.9249C46.6379 56.1611 45.3806 56.4304 44.1256 56.7336C27.0697 60.9538 11.8897 73.2972 4.09266 89.5878M328.973 21.9376C327.478 33.4065 317.36 41.2872 306.446 44.6592C300.9 46.3514 294.995 47.0696 289.227 46.6996C280.997 46.1833 273 43.8683 265.547 40.3574C257.457 36.5502 250.025 31.4143 242.31 26.8884C240.478 25.8126 238.615 24.7731 236.699 23.7827C223.159 16.7904 207.437 13.1633 192.844 17.0642C173.25 22.2902 159.365 40.2086 142.268 49.9381C134.397 54.415 126.354 57.0533 117.389 57.8712C112.974 58.2925 108.524 58.2053 104.016 57.9178C85.4845 56.7117 65.8982 52.4116 47.6818 56.0429C46.4341 56.2888 45.1783 56.5807 43.9473 56.9049C27.098 61.3605 12.1877 73.7192 4.53077 89.9319M329.517 24.1249C327.941 35.7131 317.551 43.5558 306.484 46.8137C300.845 48.4556 294.88 49.1098 289.041 48.688C280.717 48.0989 272.646 45.6868 265.15 42.054C257.018 38.1135 249.584 32.796 241.815 28.1377C239.969 27.0288 238.093 25.9562 236.175 24.9432C222.534 17.7763 206.568 14.1889 191.851 18.2347C172.444 23.5725 158.594 41.3523 141.437 50.5523C133.55 54.7806 125.506 57.0897 116.615 57.6867C112.237 57.9919 107.816 57.8346 103.36 57.5093C84.9622 56.1237 65.4933 52.2241 47.486 56.1247C46.251 56.3924 45.0184 56.694 43.7889 57.0409C27.1567 61.7197 12.5176 74.1163 4.98881 90.2406M330.063 26.3235C328.404 38.0196 317.744 45.8358 306.524 48.9908C300.803 50.5816 294.766 51.1727 288.868 50.6983C280.46 50.0355 272.305 47.5385 264.767 43.7837C256.58 39.6995 249.145 34.2117 241.334 29.4201C239.474 28.2781 237.585 27.1837 235.654 26.1375C221.922 18.7953 205.712 15.2363 190.861 19.4504C171.64 24.8888 157.814 42.5306 140.621 51.1996C132.705 55.1914 124.67 57.148 115.844 57.5475C111.503 57.7365 107.121 57.5083 102.696 57.1356C84.4311 55.5704 65.0797 52.0713 47.2822 56.2524C46.0599 56.542 44.84 56.8654 43.6335 57.222C27.1953 62.1144 12.8156 74.5383 5.43806 90.584M330.596 28.5116C328.845 40.3277 317.925 48.1053 306.551 51.146C300.748 52.6858 294.64 53.2138 288.67 52.6875C280.178 51.9398 271.939 49.3578 264.359 45.4811C256.118 41.2644 248.682 35.5951 240.828 30.6702C238.966 29.4943 237.063 28.3668 235.109 27.3109C221.275 19.7828 204.833 16.2739 189.835 20.6345C170.801 26.1847 157.01 43.6766 139.757 51.8161C131.824 55.5594 123.789 57.198 115.025 57.3661C110.722 57.4504 106.379 57.14 101.996 56.7302C83.8746 54.9734 64.6303 51.8869 47.0419 56.3373C45.8316 56.6374 44.6354 56.9819 43.4417 57.3602C27.2333 62.4978 13.1241 74.9482 5.8747 90.9055M331.141 30.7103C329.308 42.6342 318.107 50.3973 306.591 53.3231C300.705 54.8006 294.526 55.2767 288.486 54.6986C279.899 53.878 271.598 51.2095 263.964 47.2002C255.679 42.839 248.231 37.0002 240.345 31.9413C238.471 30.7437 236.554 29.583 234.598 28.4932C220.662 20.7905 203.976 17.3101 188.856 21.8381C169.996 27.4784 156.252 44.8421 138.94 52.4634C130.98 55.9702 122.966 57.2668 114.266 57.2261C109.999 57.2055 105.696 56.8129 101.343 56.3556C83.3547 54.4192 64.2286 51.7446 46.8485 56.4529C45.6508 56.7748 44.4667 57.1299 43.2968 57.5293C27.2943 62.8909 13.4563 75.3792 6.34704 91.2586M331.674 32.8984C329.76 44.9415 318.287 52.6668 306.618 55.4783C300.651 56.9048 294.4 57.3178 288.299 56.6758C279.629 55.7815 271.243 53.0168 263.568 48.8968C255.228 44.4031 247.79 38.382 239.85 33.1907C237.963 31.9598 236.043 30.7653 234.063 29.6544C220.037 21.7764 203.107 18.3244 187.84 23.0102C169.167 28.751 155.457 45.976 138.098 53.0671C130.12 56.3253 122.107 57.304 113.468 57.0318C109.24 56.9065 104.976 56.443 100.665 55.9374C82.8204 53.8207 63.8007 51.5474 46.6297 56.525C45.4447 56.8687 44.2844 57.2447 43.1153 57.6555C27.3306 63.2517 13.752 75.7673 6.77093 91.5583M332.219 35.097C330.223 47.2593 318.48 54.9467 306.657 57.6441C300.608 59.0195 294.285 59.3693 288.114 58.6755C279.359 57.6963 270.89 54.8579 263.172 50.6047C254.779 45.9786 247.339 39.7759 239.356 34.4513C237.466 33.1866 235.523 31.9709 233.529 30.827C219.401 22.7744 202.237 19.3387 186.838 24.2041C168.35 30.0454 154.665 47.1325 137.258 53.7047C129.253 56.7264 121.249 57.3637 112.686 56.882C108.482 56.6414 104.259 56.107 99.989 55.5531C82.2774 53.2568 63.3751 51.384 46.4131 56.6309C45.252 56.9956 44.0925 57.383 42.9473 57.8148C27.3685 63.6351 14.0604 76.1772 7.2194 91.8903M332.763 37.2843C330.674 49.5554 318.66 57.2162 306.696 59.8099C300.564 61.1229 294.171 61.4209 287.94 60.6745C279.102 59.6216 270.547 56.687 262.787 52.3119C254.35 47.5411 246.899 41.169 238.873 35.7111C236.969 34.4133 235.024 33.1638 233.006 31.9988C218.787 23.7596 201.368 20.3642 185.847 25.3972C167.544 31.3278 153.896 48.2988 136.44 54.3294C128.406 57.1033 120.424 57.4212 111.912 56.7089C107.747 56.3635 103.562 55.7469 99.3345 55.156C81.767 52.6793 62.9711 51.2078 46.2182 56.7239C45.069 57.0992 43.9222 57.5084 42.8008 57.9612C27.4391 64.0048 14.3911 76.5856 7.68943 92.2095M333.297 39.4837C331.126 51.8627 318.853 59.4961 306.724 61.9765C300.499 63.2392 294.045 63.4733 287.744 62.675C278.811 61.5492 270.183 58.5289 262.381 54.0318C253.89 49.1286 246.437 42.5749 238.38 36.983C236.462 35.6521 234.505 34.3807 232.485 33.1931C218.164 24.7794 200.511 21.4004 184.845 26.6023C166.717 32.623 153.115 49.4658 135.601 54.9783C127.55 57.5149 119.569 57.5149 111.119 56.5712C106.991 56.1209 102.845 55.4222 98.6489 54.795C81.2144 52.1388 62.536 51.0679 45.9921 56.8532C44.8556 57.2503 43.7327 57.6806 42.6121 58.1447C27.457 64.4236 14.6899 77.0189 8.11718 92.5657M333.841 41.6711C331.589 54.1692 319.033 61.7656 306.763 64.1422C300.456 65.3539 293.931 65.5249 287.569 64.674C278.553 63.4746 269.84 60.358 261.996 55.739C253.451 50.692 246.008 43.9673 237.897 38.2429C235.966 36.8788 233.994 35.5743 231.962 34.3649C217.54 25.7766 199.642 22.4147 183.853 27.7954C165.91 33.9054 152.334 50.6216 134.771 55.6037C126.692 57.8926 118.722 57.5626 110.346 56.398C106.255 55.843 102.149 55.062 97.9936 54.3866C80.6913 51.5395 62.1319 50.8917 45.7971 56.9463C44.6734 57.3652 43.5623 57.806 42.4656 58.2911C27.5276 64.7934 15.0207 77.4273 8.5872 92.8849M334.386 43.8697C332.042 56.4878 319.226 64.0456 306.802 66.308C300.412 67.4573 293.827 67.5757 287.383 66.6625C278.283 65.3781 269.486 62.1878 261.599 57.4356C253.011 52.2553 245.556 45.3498 237.402 39.4922C235.469 38.0942 233.484 36.7679 231.428 35.5262C216.914 26.7512 198.76 23.4184 182.838 28.9675C164.069 35.1562 150.781 51.7555 133.93 56.2187C125.834 58.2703 117.863 57.6111 109.551 56.2264C105.497 55.5666 101.419 54.7042 97.3057 53.9918C80.1475 50.9643 61.6944 50.7178 45.5687 57.0417C44.4569 57.4711 43.3697 57.9329 42.2849 58.4286C27.5536 65.1662 15.3172 77.8267 9.01186 93.1959M334.919 46.0578C332.494 58.7951 319.407 66.3263 306.83 68.4746C300.358 69.5728 293.702 69.6281 287.198 68.6622C278.014 67.3042 269.133 64.029 261.204 59.1547C252.562 53.842 245.105 46.755 236.919 40.7633C234.974 39.3435 232.975 37.9728 230.917 36.7085C216.301 27.759 197.903 24.4433 181.859 30.1711C164.274 36.449 150.781 52.921 133.112 56.8547C124.988 58.6585 117.028 57.6693 108.779 56.0758C104.763 55.3112 100.723 54.3666 96.6519 53.6059C79.6268 50.3988 61.2912 50.5529 45.3745 57.1461C44.2865 57.5965 43.2009 58.0809 42.1392 58.5864C27.625 65.5473 15.6479 78.2351 9.48265 93.5264M335.464 48.2564C332.957 61.1016 319.588 68.5958 306.869 70.6404C300.315 71.6875 293.587 71.6797 287.013 70.662C277.734 69.2311 268.78 65.8588 260.808 60.8626C252.111 55.4062 244.654 48.1489 236.425 42.0239C234.466 40.571 232.466 39.1777 230.383 37.881C215.677 28.7562 197.032 25.4463 180.855 31.3537C163.444 37.7103 149.999 54.0654 132.272 57.481C124.12 59.0483 116.181 57.7283 107.995 55.9034C104.015 55.0227 100.016 54.0072 95.9752 53.2103C79.0941 49.8229 60.8648 50.3783 45.1461 57.2414C44.0708 57.7138 43.0083 58.2079 41.9481 58.7359C27.6509 65.9201 15.934 78.6465 9.90806 93.8487M335.997 50.4446C333.409 63.4089 319.78 70.8757 306.897 72.8069C300.26 73.7917 293.462 73.732 286.828 72.6617C277.465 71.1459 268.427 67.7 260.413 62.5705C251.673 56.9808 244.214 49.5419 235.931 43.2845C233.958 41.7985 231.945 40.3721 229.849 39.0536C215.041 29.7542 196.152 26.4613 179.841 32.5483C162.604 38.9837 149.196 55.2227 131.431 58.1072C123.263 59.4373 115.323 57.7881 107.2 55.7431C103.258 54.7576 99.2982 53.6712 95.2983 52.8147C78.5503 49.2477 60.4385 50.2036 44.9288 57.3361C43.8655 57.8189 42.8164 58.3462 41.7793 58.8839C27.6888 66.3035 16.2416 79.0452 10.3558 94.1695M336.542 52.6432C333.861 65.7162 319.962 73.1565 306.936 74.9727C300.218 75.9065 293.347 75.7836 286.643 74.6615C277.196 73.072 268.073 69.5298 260.017 64.2784C251.222 58.5449 243.763 50.9471 235.437 44.5452C233.462 43.0253 231.435 41.577 229.327 40.2367C214.428 30.7506 195.282 27.4756 178.85 33.7414C161.786 40.2556 148.426 56.389 130.602 58.744C122.406 59.8263 114.477 57.8471 106.427 55.5812C102.512 54.4917 98.6023 53.3224 94.6335 52.4296C78.0296 48.6823 60.0249 50.0508 44.7234 57.4412C43.6728 57.9459 42.6357 58.4836 41.6225 59.0425C27.749 66.6853 16.5731 79.4649 10.8162 94.512M337.087 54.8305C334.324 68.0228 320.153 75.4251 306.964 77.1393C300.152 78.0227 293.222 77.836 286.457 76.6613C276.916 74.9875 267.719 71.3597 259.621 65.9863C250.783 60.1196 243.312 52.341 234.954 45.805C232.965 44.252 230.925 42.7706 228.804 41.4084C213.803 31.7478 194.398 28.4455 177.848 34.9353C160.943 41.4951 147.645 57.5448 129.773 59.3695C121.559 60.2145 113.63 57.9061 105.644 55.4201C101.765 54.2145 97.884 52.975 93.9678 52.0332C77.4969 48.1063 59.6097 49.8754 44.5173 57.535C43.4794 58.0615 42.4653 58.6091 41.4648 59.1897C27.7981 67.0679 16.8926 79.874 11.275 94.832M337.621 57.0299C334.775 70.3301 320.335 77.7059 307.003 79.305C290.407 81.2906 273.145 77.101 259.225 67.6942C248.219 60.2643 239.399 49.8322 228.271 42.5923C213.168 32.7571 193.519 29.4832 176.845 36.1291C160.128 42.8008 146.852 58.7013 128.932 59.9958C116.703 60.8822 105.198 54.6451 93.291 51.6376C76.9635 47.5191 59.1722 49.7015 44.3008 57.641C29.4294 65.5804 17.5957 79.2006 11.7124 95.1648" stroke="#96B2B2" stroke-width="0.169396" stroke-miterlimit="10"/>
</svg>
